<svg xmlns="http://www.w3.org/2000/svg" viewBox="0 0 176.336 117.557"><defs><style>.cls-1{fill:#8dceb8;}.cls-2,.cls-3{fill:#161f6d;}.cls-3{opacity:0.8;}</style></defs><g id="Layer_2" data-name="Layer 2"><g id="Layer_1-2" data-name="Layer 1"><path class="cls-1" d="M58.779,58.779a58.452,58.452,0,0,1,8.108-29.794,59.109,59.109,0,0,1,21.281-21.1,58.8,58.8,0,1,0,0,101.791,59.109,59.109,0,0,1-21.281-21.1A58.449,58.449,0,0,1,58.779,58.779Z"/><path class="cls-2" d="M117.557,0A58.487,58.487,0,0,0,88.168,7.883a59.109,59.109,0,0,1,21.281,21.1,58.793,58.793,0,0,1,0,59.587,59.109,59.109,0,0,1-21.281,21.1A58.775,58.775,0,1,0,117.557,0Z"/><path class="cls-3" d="M117.557,58.779a58.452,58.452,0,0,0-8.108-29.794,59.109,59.109,0,0,0-21.281-21.1,59.109,59.109,0,0,0-21.281,21.1,58.793,58.793,0,0,0,0,59.587,59.109,59.109,0,0,0,21.281,21.1,59.109,59.109,0,0,0,21.281-21.1A58.449,58.449,0,0,0,117.557,58.779Z"/></g></g></svg>