<svg xmlns="http://www.w3.org/2000/svg" viewBox="0 0 35.83 44.6"><defs><style>.cls-1{fill:#8dceb8;}.cls-2{fill:#161f6d;}</style></defs><g id="Layer_2" data-name="Layer 2"><g id="Layer_1-2" data-name="Layer 1"><path class="cls-1" d="M35.82,16.5A6,6,0,0,0,30,10.42a5.73,5.73,0,0,0-6,5.85c-.08,4.34,4.65,6.19,4.55,11.22s-4.89,6.69-5,11a5.74,5.74,0,0,0,5.74,6.08,6,6,0,0,0,6.07-5.86c.09-4.39-4.73-6.17-4.64-11.21S35.75,20.89,35.82,16.5Z"/><path class="cls-2" d="M24.48,6.08A6,6,0,0,0,18.63,0a5.74,5.74,0,0,0-6,5.85c-.08,4.34,4.65,6.19,4.55,11.22s-4.89,6.7-5,11A5.74,5.74,0,0,0,18,34.18a6,6,0,0,0,6.07-5.85c.09-4.4-4.73-6.18-4.64-11.22S24.4,10.47,24.48,6.08Z"/><path class="cls-1" d="M12.24,16.5A6,6,0,0,0,6.4,10.42a5.74,5.74,0,0,0-6,5.85C.34,20.61,5.07,22.46,5,27.49s-4.89,6.69-5,11A5.75,5.75,0,0,0,5.75,44.6a6,6,0,0,0,6.06-5.86c.09-4.39-4.73-6.17-4.64-11.21S12.16,20.89,12.24,16.5Z"/></g></g></svg>